<?xml version="1.0" encoding="utf-8"?>
<!-- Generator: Adobe Illustrator 16.0.3, SVG Export Plug-In . SVG Version: 6.00 Build 0)  -->
<!DOCTYPE svg PUBLIC "-//W3C//DTD SVG 1.1//EN" "http://www.w3.org/Graphics/SVG/1.1/DTD/svg11.dtd">
<svg version="1.1" xmlns="http://www.w3.org/2000/svg" xmlns:xlink="http://www.w3.org/1999/xlink" x="0px" y="0px" width="64px"
	 height="64px" viewBox="0 0 64 64" enable-background="new 0 0 64 64" xml:space="preserve">
<g id="レイヤー_1" display="none">
	<g display="inline">
		<g>
			<path fill="none" stroke="#FF0000" stroke-width="7" stroke-miterlimit="10" d="M32.746,39.115c-5.4-3.118-5.4-8.22,0-11.338
				L55.79,14.473c5.4-3.118,9.819-0.567,9.819,5.669l-0.001,26.606c0,6.236-4.419,8.788-9.819,5.67L32.746,39.115z"/>
		</g>
		<polyline fill="none" stroke="#FF0000" stroke-width="7" stroke-miterlimit="10" points="44.472,45.885 35.494,61.196 0,61.196 		
			"/>
	</g>
</g>
<g id="_x32_0150108" display="none">
	<g display="inline">
		<g>
			<path fill="none" stroke="#E60033" stroke-width="7" stroke-miterlimit="10" d="M32.746,39.115c-5.4-3.118-5.4-8.22,0-11.338
				L55.79,14.473c5.4-3.118,9.819-0.567,9.819,5.669l-0.001,26.606c0,6.236-4.419,8.788-9.819,5.67L32.746,39.115z"/>
		</g>
		
			<line fill="none" stroke="#E60033" stroke-width="7" stroke-linecap="round" stroke-miterlimit="10" x1="35.494" y1="61.196" x2="5.446" y2="61.196"/>
		
			<line fill="none" stroke="#E60033" stroke-width="7" stroke-linecap="round" stroke-miterlimit="10" x1="44.472" y1="45.885" x2="35.494" y2="61.196"/>
	</g>
</g>
<g id="_x32_0150108のコピー">
	<g>
		<g>
			<path fill="none" stroke="#FF0000" stroke-width="6.187" stroke-miterlimit="10" d="M24.814,33.141
				c-2.456-1.417-2.456-3.738,0-5.155l30.535-17.629c2.455-1.417,4.465-0.257,4.465,2.578l-0.001,35.253
				c0,2.836-2.01,3.996-4.465,2.579L24.814,33.141z"/>
		</g>
		
			<line fill="none" stroke="#FF0000" stroke-width="6.187" stroke-linecap="round" stroke-miterlimit="10" x1="31.969" y1="56.22" x2="4.188" y2="56.22"/>
		
			<line fill="none" stroke="#FF0000" stroke-width="6.187" stroke-linecap="round" stroke-miterlimit="10" x1="40.271" y1="42.064" x2="31.969" y2="56.22"/>
	</g>
</g>
</svg>
